<svg width="65" height="65" viewBox="0 0 65 65" fill="none" xmlns="http://www.w3.org/2000/svg">
<rect width="65" height="65" rx="12" fill="#FFA842"/>
<g filter="url(#filter0_d_5_3419)">
<path d="M42.7857 31.8571H40.8571V26.7143C40.8571 25.2936 39.7064 24.1429 38.2857 24.1429H33.1429V22.2143C33.1429 20.44 31.7029 19 29.9286 19C28.1543 19 26.7143 20.44 26.7143 22.2143V24.1429H21.5714C20.1507 24.1429 19.0129 25.2936 19.0129 26.7143L19.0064 31.6H20.9286C22.8443 31.6 24.4 33.1557 24.4 35.0714C24.4 36.9871 22.8443 38.5429 20.9286 38.5429H19.0064L19 43.4286C19 44.8493 20.1507 46 21.5714 46H26.4571V44.0714C26.4571 42.1557 28.0129 40.6 29.9286 40.6C31.8443 40.6 33.4 42.1557 33.4 44.0714V46H38.2857C39.7064 46 40.8571 44.8493 40.8571 43.4286V38.2857H42.7857C44.56 38.2857 46 36.8457 46 35.0714C46 33.2971 44.56 31.8571 42.7857 31.8571Z" fill="url(#paint0_linear_5_3419)"/>
</g>
<defs>
<filter id="filter0_d_5_3419" x="15" y="17" width="35" height="35" filterUnits="userSpaceOnUse" color-interpolation-filters="sRGB">
<feFlood flood-opacity="0" result="BackgroundImageFix"/>
<feColorMatrix in="SourceAlpha" type="matrix" values="0 0 0 0 0 0 0 0 0 0 0 0 0 0 0 0 0 0 127 0" result="hardAlpha"/>
<feOffset dy="2"/>
<feGaussianBlur stdDeviation="2"/>
<feColorMatrix type="matrix" values="0 0 0 0 0.895833 0 0 0 0 0.406858 0 0 0 0 0.414681 0 0 0 0.26 0"/>
<feBlend mode="normal" in2="BackgroundImageFix" result="effect1_dropShadow_5_3419"/>
<feBlend mode="normal" in="SourceGraphic" in2="effect1_dropShadow_5_3419" result="shape"/>
</filter>
<linearGradient id="paint0_linear_5_3419" x1="19" y1="19" x2="19" y2="46" gradientUnits="userSpaceOnUse">
<stop stop-color="white"/>
<stop offset="1" stop-color="white" stop-opacity="0.45"/>
</linearGradient>
</defs>
</svg>
