<svg width="65" height="65" viewBox="0 0 65 65" fill="none" xmlns="http://www.w3.org/2000/svg">
<rect width="65" height="65" rx="15" fill="url(#paint0_linear_5_3388)"/>
<g filter="url(#filter0_d_5_3388)">
<path fill-rule="evenodd" clip-rule="evenodd" d="M39.6638 17.4414L37.9672 19.1582C39.9248 20.5976 41.1908 22.9219 41.1908 25.5499H25.53C25.53 22.9219 26.7959 20.6108 28.7274 19.1714L27.0178 17.4414C26.7568 17.1773 26.7568 16.7679 27.0178 16.5038C27.2788 16.2396 27.6833 16.2396 27.9444 16.5038L29.8889 18.4582C30.933 17.93 32.1075 17.6263 33.3604 17.6263C34.6002 17.6263 35.7747 17.93 36.8057 18.4582L38.7372 16.5038C38.9983 16.2396 39.4028 16.2396 39.6638 16.5038C39.9248 16.7679 39.9248 17.1773 39.6638 17.4414ZM20.3105 28.8513C20.3105 27.7552 21.1849 26.8704 22.2681 26.8704C23.3513 26.8704 24.2257 27.7552 24.2257 28.8513V38.0955C24.2257 39.1916 23.3513 40.0764 22.2681 40.0764C21.1849 40.0764 20.3105 39.1916 20.3105 38.0955V28.8513ZM26.8351 41.397C26.1173 41.397 25.53 40.8027 25.53 40.0764V26.8704H41.1908V40.0764C41.1908 40.8027 40.6035 41.397 39.8857 41.397H38.5806V46.0191C38.5806 47.1152 37.7062 48 36.623 48C35.5398 48 34.6654 47.1152 34.6654 46.0191V41.397H32.0553V46.0191C32.0553 47.1152 31.1809 48 30.0977 48C29.0145 48 28.1401 47.1152 28.1401 46.0191V41.397H26.8351ZM44.4558 26.8704C43.3726 26.8704 42.4982 27.7552 42.4982 28.8513V38.0955C42.4982 39.1916 43.3726 40.0764 44.4558 40.0764C45.539 40.0764 46.4134 39.1916 46.4134 38.0955V28.8513C46.4134 27.7552 45.539 26.8704 44.4558 26.8704ZM30.7519 22.9086H29.4469V21.588H30.7519V22.9086ZM35.9707 22.9086H37.2758V21.588H35.9707V22.9086Z" fill="url(#paint1_linear_5_3388)"/>
</g>
<defs>
<filter id="filter0_d_5_3388" x="16.3105" y="14.3057" width="34.103" height="39.6943" filterUnits="userSpaceOnUse" color-interpolation-filters="sRGB">
<feFlood flood-opacity="0" result="BackgroundImageFix"/>
<feColorMatrix in="SourceAlpha" type="matrix" values="0 0 0 0 0 0 0 0 0 0 0 0 0 0 0 0 0 0 127 0" result="hardAlpha"/>
<feOffset dy="2"/>
<feGaussianBlur stdDeviation="2"/>
<feColorMatrix type="matrix" values="0 0 0 0 0.294601 0 0 0 0 0.461561 0 0 0 0 0.995833 0 0 0 1 0"/>
<feBlend mode="normal" in2="BackgroundImageFix" result="effect1_dropShadow_5_3388"/>
<feBlend mode="normal" in="SourceGraphic" in2="effect1_dropShadow_5_3388" result="shape"/>
</filter>
<linearGradient id="paint0_linear_5_3388" x1="32.5" y1="0" x2="32.5" y2="65" gradientUnits="userSpaceOnUse">
<stop stop-color="#56AEFF"/>
<stop offset="1" stop-color="#406AFF"/>
</linearGradient>
<linearGradient id="paint1_linear_5_3388" x1="20.3105" y1="16.3057" x2="20.3105" y2="48" gradientUnits="userSpaceOnUse">
<stop stop-color="white"/>
<stop offset="1" stop-color="white" stop-opacity="0.5"/>
</linearGradient>
</defs>
</svg>
